<svg class="svg-icon" style="width: 1em; height: 1em;vertical-align: middle;fill: currentColor;overflow: hidden;" viewBox="0 0 1024 1024" version="1.1" xmlns="http://www.w3.org/2000/svg"><path d="M947.2 921.6H76.8c-42.496 0-76.8-34.304-76.8-76.8V179.2c0-42.496 34.304-76.8 76.8-76.8h870.4c42.496 0 76.8 34.304 76.8 76.8v665.6c0 42.496-34.304 76.8-76.8 76.8zM76.8 153.6c-14.336 0-25.6 11.264-25.6 25.6v665.6c0 14.336 11.264 25.6 25.6 25.6h870.4c14.336 0 25.6-11.264 25.6-25.6V179.2c0-14.336-11.264-25.6-25.6-25.6H76.8z" fill="#fff" /><path d="M0 281.6h1024v51.2H0zM153.6 486.4h102.4v51.2H153.6zM153.6 588.8h102.4v51.2H153.6zM153.6 691.2h102.4v51.2H153.6zM358.4 486.4h512v51.2H358.4zM358.4 588.8h512v51.2H358.4zM358.4 691.2h512v51.2H358.4z" fill="#fff" /><path d="M179.2 217.6m-25.6 0a25.6 25.6 0 1 0 51.2 0 25.6 25.6 0 1 0-51.2 0Z" fill="#fff" /><path d="M256 217.6m-25.6 0a25.6 25.6 0 1 0 51.2 0 25.6 25.6 0 1 0-51.2 0Z" fill="#fff" /><path d="M332.8 217.6m-25.6 0a25.6 25.6 0 1 0 51.2 0 25.6 25.6 0 1 0-51.2 0Z" fill="#fff" /></svg>